<?xml version="1.0" encoding="utf-8"?>
<!-- Generator: Adobe Illustrator 19.2.1, SVG Export Plug-In . SVG Version: 6.00 Build 0)  -->
<svg version="1.1" id="Layer_1" xmlns="http://www.w3.org/2000/svg" xmlns:xlink="http://www.w3.org/1999/xlink" x="0px" y="0px"
	 viewBox="0 0 186.1 87" style="enable-background:new 0 0 186.1 87;" xml:space="preserve">
<style type="text/css">
	.st0{clip-path:url(#SVGID_2_);fill:#EA912E;}
	.st1{clip-path:url(#SVGID_4_);fill:#EA912E;}
	.st2{clip-path:url(#SVGID_6_);fill:#EA912E;}
	.st3{clip-path:url(#SVGID_8_);fill:#EA912E;}
	.st4{clip-path:url(#SVGID_10_);fill:#363634;}
	.st5{clip-path:url(#SVGID_12_);fill:#363634;}
	.st6{clip-path:url(#SVGID_14_);fill:#363634;}
	.st7{clip-path:url(#SVGID_16_);fill:#363634;}
	.st8{clip-path:url(#SVGID_18_);fill:#363634;}
	.st9{clip-path:url(#SVGID_20_);fill:#363634;}
	.st10{clip-path:url(#SVGID_22_);fill:#363634;}
	.st11{clip-path:url(#SVGID_24_);fill:#363634;}
	.st12{clip-path:url(#SVGID_26_);fill:#363634;}
	.st13{clip-path:url(#SVGID_28_);fill:#363634;}
	.st14{clip-path:url(#SVGID_30_);fill:#363634;}
	.st15{clip-path:url(#SVGID_32_);fill:#363634;}
	.st16{clip-path:url(#SVGID_34_);fill:#363634;}
	.st17{clip-path:url(#SVGID_36_);fill:#363634;}
	.st18{clip-path:url(#SVGID_38_);fill:#363634;}
	.st19{clip-path:url(#SVGID_40_);fill:#363634;}
	.st20{clip-path:url(#SVGID_42_);fill:#363634;}
	.st21{clip-path:url(#SVGID_44_);fill:#363634;}
	.st22{clip-path:url(#SVGID_46_);fill:#363634;}
	.st23{clip-path:url(#SVGID_48_);fill:#363634;}
	.st24{clip-path:url(#SVGID_50_);fill:#363634;}
	.st25{clip-path:url(#SVGID_52_);fill:#363634;}
	.st26{clip-path:url(#SVGID_54_);fill:#363634;}
	.st27{clip-path:url(#SVGID_56_);enable-background:new    ;}
	.st28{clip-path:url(#SVGID_58_);}
	.st29{clip-path:url(#SVGID_60_);}
	.st30{clip-path:url(#SVGID_62_);fill:#363634;}
	.st31{clip-path:url(#SVGID_64_);}
	.st32{clip-path:url(#SVGID_66_);fill:#363634;}
</style>
<g>
	<g>
		<defs>
			<polyline id="SVGID_1_" points="152.2,37 177,21.5 177,25.7 152.2,41.2 127.4,25.7 127.4,21.5 152.2,37 			"/>
		</defs>
		<clipPath id="SVGID_2_">
			<use xlink:href="#SVGID_1_"  style="overflow:visible;"/>
		</clipPath>
		<rect x="125" y="19.2" class="st0" width="54.3" height="24.3"/>
	</g>
	<g>
		<defs>
			<path id="SVGID_3_" d="M152.2,17.7c-5.6,0-10.5,2.8-13.4,7.2l0,0c0.2-0.2,0.4-0.4,0.6-0.5c7-5.8,17-4.5,22.5,2.8l3.7-2.3h0
				C162.7,20.5,157.8,17.7,152.2,17.7"/>
		</defs>
		<clipPath id="SVGID_4_">
			<use xlink:href="#SVGID_3_"  style="overflow:visible;"/>
		</clipPath>
		<rect x="136.5" y="15.3" class="st1" width="31.4" height="14.1"/>
	</g>
	<g>
		<defs>
			<path id="SVGID_5_" d="M152.2,24.8c-3,0-5.7,1.5-7.3,3.8c1.3-0.9,2.8-1.5,4.5-1.5c2.7,0,5.1,1.4,6.7,3.7l3.5-2.2h0
				C157.9,26.3,155.2,24.8,152.2,24.8"/>
		</defs>
		<clipPath id="SVGID_6_">
			<use xlink:href="#SVGID_5_"  style="overflow:visible;"/>
		</clipPath>
		<rect x="142.5" y="22.4" class="st2" width="19.3" height="10.7"/>
	</g>
	<g>
		<defs>
			<path id="SVGID_7_" d="M135.4,18.5c10.2-8.1,24.7-5.9,32.4,4.8l0.1,0.1l3.8-2.4v0c-4.1-6.3-11.3-10.5-19.4-10.5
				c-8,0-15.2,4.1-19.4,10.5C133.5,20.2,134.5,19.2,135.4,18.5"/>
		</defs>
		<clipPath id="SVGID_8_">
			<use xlink:href="#SVGID_7_"  style="overflow:visible;"/>
		</clipPath>
		<rect x="130.4" y="8.2" class="st3" width="43.5" height="17.5"/>
	</g>
	<g>
		<defs>
			<path id="SVGID_9_" d="M15.4,72.3C14.9,73,14,73.5,13,73.5c-1.4,0-2.4-0.8-2.4-2.1c0-2.3,2.6-2.2,4.8-2.3v-0.4
				c0-1-0.5-1.6-1.7-1.6c-1.1,0-1.7,0.4-1.8,1.2c-0.3,0-0.6,0-0.9-0.1c0.2-1.3,1.2-2,2.8-2c1.7,0,2.6,0.8,2.6,2.6v4.5h-0.6
				L15.4,72.3z M15.3,69.8c-2.5,0.1-3.7,0.2-3.7,1.5c0,0.8,0.5,1.3,1.5,1.3c1.5,0,2.3-1,2.3-2.2V69.8z"/>
		</defs>
		<clipPath id="SVGID_10_">
			<use xlink:href="#SVGID_9_"  style="overflow:visible;"/>
		</clipPath>
		<rect x="8.2" y="63.9" class="st4" width="10.4" height="11.9"/>
	</g>
	<g>
		<defs>
			<path id="SVGID_11_" d="M18.6,66.4h0.6l0.4,1.1c0.6-0.9,1.4-1.3,2.4-1.3c1.6,0,2.4,0.9,2.4,2.5v4.6h-1v-4.4
				c0-1.2-0.5-1.8-1.5-1.8c-1.6,0-2.2,1.3-2.2,2.8v3.4h-1V66.4"/>
		</defs>
		<clipPath id="SVGID_12_">
			<use xlink:href="#SVGID_11_"  style="overflow:visible;"/>
		</clipPath>
		<rect x="16.3" y="63.9" class="st5" width="10.3" height="11.8"/>
	</g>
	<g>
		<defs>
			<path id="SVGID_13_" d="M84.7,71c-0.2,1.5-1.2,2.5-2.9,2.5c-2.1,0-3.1-1.6-3.1-3.6c0-2.1,1.1-3.7,3.2-3.7c1.6,0,2.6,1,2.7,2.4h-1
				c-0.1-0.9-0.7-1.6-1.8-1.6c-1.6,0-2.1,1.4-2.1,2.8c0,1.4,0.5,2.8,2.1,2.8c1.1,0,1.7-0.7,1.8-1.6H84.7"/>
		</defs>
		<clipPath id="SVGID_14_">
			<use xlink:href="#SVGID_13_"  style="overflow:visible;"/>
		</clipPath>
		<rect x="76.4" y="63.9" class="st6" width="10.6" height="12"/>
	</g>
	<g>
		<defs>
			<path id="SVGID_15_" d="M86.2,69.9c0-2.1,1.2-3.7,3.2-3.7c2.1,0,3.2,1.5,3.2,3.6c0,2.1-1.1,3.7-3.2,3.7
				C87.2,73.5,86.2,72,86.2,69.9z M91.5,69.9c0-1.4-0.5-2.8-2.2-2.8c-1.6,0-2.2,1.4-2.2,2.8c0,1.4,0.5,2.8,2.2,2.8
				C91,72.7,91.5,71.3,91.5,69.9z"/>
		</defs>
		<clipPath id="SVGID_16_">
			<use xlink:href="#SVGID_15_"  style="overflow:visible;"/>
		</clipPath>
		<rect x="83.8" y="63.9" class="st7" width="11" height="12"/>
	</g>
	<g>
		<defs>
			<path id="SVGID_17_" d="M103.2,73.3v-4.5c0-1.2-0.4-1.7-1.4-1.7s-1.9,0.9-1.9,2.1v4.1h-1v-4.5c0-1.2-0.4-1.7-1.4-1.7
				c-1,0-1.9,0.9-1.9,2.4v3.8h-1v-6.9h0.6l0.4,1.1c0.5-0.8,1.2-1.3,2.1-1.3c1.1,0,1.7,0.5,2,1.4c0.5-0.8,1.3-1.4,2.3-1.4
				c1.5,0,2.2,0.9,2.2,2.4v4.7H103.2"/>
		</defs>
		<clipPath id="SVGID_18_">
			<use xlink:href="#SVGID_17_"  style="overflow:visible;"/>
		</clipPath>
		<rect x="92.2" y="63.9" class="st8" width="14.3" height="11.8"/>
	</g>
	<g>
		<defs>
			<path id="SVGID_19_" d="M106.4,66.4h0.7l0.3,1c0.5-0.8,1.3-1.2,2.3-1.2c2,0,3,1.6,3,3.6c0,2.1-1,3.7-3,3.7
				c-0.9,0-1.7-0.4-2.2-1.1V76h-1V66.4z M109.5,72.7c1.4,0,2.1-1.1,2.1-2.8c0-1.7-0.8-2.8-2-2.8c-1.4,0-2.2,1.2-2.2,2.6
				C107.4,71.5,107.9,72.7,109.5,72.7z"/>
		</defs>
		<clipPath id="SVGID_20_">
			<use xlink:href="#SVGID_19_"  style="overflow:visible;"/>
		</clipPath>
		<rect x="104.1" y="63.9" class="st9" width="10.9" height="14.4"/>
	</g>
	<g>
		<defs>
			<path id="SVGID_21_" d="M118.8,72.3c-0.4,0.7-1.3,1.2-2.4,1.2c-1.4,0-2.4-0.8-2.4-2.1c0-2.3,2.6-2.2,4.8-2.3v-0.4
				c0-1-0.5-1.6-1.7-1.6c-1.1,0-1.7,0.4-1.8,1.2c-0.3,0-0.6,0-0.9-0.1c0.2-1.3,1.2-2,2.8-2c1.7,0,2.6,0.8,2.6,2.6v4.5h-0.6
				L118.8,72.3z M118.8,69.8c-2.5,0.1-3.7,0.2-3.7,1.5c0,0.8,0.5,1.3,1.5,1.3c1.5,0,2.3-1,2.3-2.2V69.8z"/>
		</defs>
		<clipPath id="SVGID_22_">
			<use xlink:href="#SVGID_21_"  style="overflow:visible;"/>
		</clipPath>
		<rect x="111.7" y="63.9" class="st10" width="10.4" height="11.9"/>
	</g>
	<g>
		<defs>
			<path id="SVGID_23_" d="M122.1,66.4h0.6l0.4,1.1c0.6-0.9,1.4-1.3,2.4-1.3c1.6,0,2.4,0.9,2.4,2.5v4.6h-1v-4.4
				c0-1.2-0.5-1.8-1.5-1.8c-1.6,0-2.2,1.3-2.2,2.8v3.4h-1V66.4"/>
		</defs>
		<clipPath id="SVGID_24_">
			<use xlink:href="#SVGID_23_"  style="overflow:visible;"/>
		</clipPath>
		<rect x="119.8" y="63.9" class="st11" width="10.3" height="11.8"/>
	</g>
	<g>
		<defs>
			<path id="SVGID_25_" d="M129.7,75.1c0.2,0.1,0.5,0.1,0.8,0.1c0.8,0,1-0.6,1.5-1.9c-0.9-2.3-1.9-4.6-2.9-6.9h1.1
				c0.8,1.9,1.5,3.8,2.3,5.7c0.7-1.9,1.4-3.8,2.1-5.7h1.1c-0.9,2.4-1.9,4.9-2.9,7.3c-0.5,1.4-0.9,2.3-2.2,2.3c-0.5,0-0.8-0.1-1-0.2
				C129.6,75.6,129.6,75.3,129.7,75.1"/>
		</defs>
		<clipPath id="SVGID_26_">
			<use xlink:href="#SVGID_25_"  style="overflow:visible;"/>
		</clipPath>
		<rect x="126.8" y="64.1" class="st12" width="11.2" height="14.3"/>
	</g>
	<g>
		<defs>
			<path id="SVGID_27_" d="M56.9,76.1c-2.5,1.8-6.2,2.8-9.4,2.8c-4.5,0-8.5-1.6-11.5-4.3c-0.2-0.2,0-0.5,0.3-0.3
				c3.3,1.9,7.3,3,11.5,3c2.8,0,5.9-0.6,8.8-1.7C57,75.3,57.4,75.8,56.9,76.1"/>
		</defs>
		<clipPath id="SVGID_28_">
			<use xlink:href="#SVGID_27_"  style="overflow:visible;"/>
		</clipPath>
		<rect x="33.6" y="71.9" class="st13" width="25.9" height="9.3"/>
	</g>
	<g>
		<defs>
			<path id="SVGID_29_" d="M58,74.9c-0.3-0.4-2.2-0.2-3-0.1c-0.2,0-0.3-0.2-0.1-0.3c1.5-1,3.8-0.7,4.1-0.4c0.3,0.3-0.1,2.7-1.4,3.8
				c-0.2,0.2-0.4,0.1-0.3-0.1C57.6,77,58.3,75.3,58,74.9"/>
		</defs>
		<clipPath id="SVGID_30_">
			<use xlink:href="#SVGID_29_"  style="overflow:visible;"/>
		</clipPath>
		<rect x="52.5" y="71.5" class="st14" width="9" height="8.8"/>
	</g>
	<g>
		<defs>
			<path id="SVGID_31_" d="M55.1,66.5c0-0.1,0.1-0.2,0.3-0.2h4.5c0.1,0,0.3,0.1,0.3,0.2v0.8c0,0.1-0.1,0.3-0.3,0.6l-2.3,3.2
				c0.9,0,1.8,0.1,2.5,0.5c0.2,0.1,0.2,0.2,0.2,0.4v1c0,0.1-0.2,0.3-0.3,0.2c-1.4-0.7-3.2-0.8-4.7,0c-0.2,0.1-0.3-0.1-0.3-0.2v-1
				c0-0.2,0-0.4,0.2-0.7l2.7-3.7h-2.3c-0.1,0-0.3-0.1-0.3-0.2V66.5z"/>
		</defs>
		<clipPath id="SVGID_32_">
			<use xlink:href="#SVGID_31_"  style="overflow:visible;"/>
		</clipPath>
		<rect x="52.5" y="63.9" class="st15" width="10" height="11.7"/>
	</g>
	<g>
		<defs>
			<path id="SVGID_33_" d="M38.8,73.5h-1.4c-0.1,0-0.2-0.1-0.2-0.2v-6.8c0-0.1,0.1-0.2,0.3-0.2h1.3c0.1,0,0.2,0.1,0.2,0.2v0.9h0
				c0.3-0.9,0.9-1.3,1.8-1.3c0.8,0,1.4,0.4,1.8,1.3c0.3-0.9,1.1-1.3,1.9-1.3c0.6,0,1.2,0.2,1.6,0.7c0.4,0.6,0.3,1.4,0.3,2.1l0,4.3
				c0,0.1-0.1,0.2-0.3,0.2h-1.4c-0.1,0-0.2-0.1-0.2-0.2l0-3.6c0-0.3,0-1,0-1.3c-0.1-0.5-0.4-0.6-0.8-0.6c-0.3,0-0.7,0.2-0.8,0.6
				c-0.1,0.3-0.1,0.9-0.1,1.3v3.6c0,0.1-0.1,0.2-0.3,0.2h-1.4c-0.1,0-0.2-0.1-0.2-0.2v-3.6c0-0.8,0.1-1.9-0.8-1.9
				c-1,0-0.9,1.1-0.9,1.9v3.6C39.1,73.4,39,73.5,38.8,73.5"/>
		</defs>
		<clipPath id="SVGID_34_">
			<use xlink:href="#SVGID_33_"  style="overflow:visible;"/>
		</clipPath>
		<rect x="34.9" y="63.8" class="st16" width="13.8" height="12"/>
	</g>
	<g>
		<defs>
			<path id="SVGID_35_" d="M63.9,66.1c2,0,3.1,1.7,3.1,3.8c0,2.1-1.2,3.7-3.1,3.7c-2,0-3.1-1.7-3.1-3.8
				C60.8,67.7,61.9,66.1,63.9,66.1z M63.9,67.5c-1,0-1.1,1.3-1.1,2.1c0,0.8,0,2.6,1.1,2.6c1,0,1.1-1.4,1.1-2.3c0-0.6,0-1.3-0.2-1.8
				C64.6,67.7,64.3,67.5,63.9,67.5z"/>
		</defs>
		<clipPath id="SVGID_36_">
			<use xlink:href="#SVGID_35_"  style="overflow:visible;"/>
		</clipPath>
		<rect x="58.5" y="63.8" class="st17" width="10.8" height="12.2"/>
	</g>
	<g>
		<defs>
			<path id="SVGID_37_" d="M69.6,73.5h-1.4c-0.1,0-0.2-0.1-0.2-0.2l0-6.8c0-0.1,0.1-0.2,0.3-0.2h1.3c0.1,0,0.2,0.1,0.2,0.2v1h0
				c0.4-0.9,0.9-1.4,1.9-1.4c0.6,0,1.2,0.2,1.6,0.8c0.4,0.5,0.4,1.5,0.4,2.1v4.3c0,0.1-0.1,0.2-0.3,0.2H72c-0.1,0-0.2-0.1-0.2-0.2
				v-3.7c0-0.7,0.1-1.8-0.8-1.8c-0.3,0-0.6,0.2-0.8,0.5c-0.2,0.4-0.2,0.8-0.2,1.3v3.6C69.9,73.4,69.8,73.5,69.6,73.5"/>
		</defs>
		<clipPath id="SVGID_38_">
			<use xlink:href="#SVGID_37_"  style="overflow:visible;"/>
		</clipPath>
		<rect x="65.7" y="63.8" class="st18" width="10.2" height="12"/>
	</g>
	<g>
		<defs>
			<path id="SVGID_39_" d="M51.5,70.2c0,0.5,0,0.9-0.3,1.4c-0.2,0.4-0.6,0.6-0.9,0.6c-0.5,0-0.8-0.4-0.8-1c0-1.1,1-1.3,2-1.3V70.2z
				 M52.9,73.5c-0.1,0.1-0.2,0.1-0.3,0c-0.4-0.4-0.5-0.5-0.8-0.9c-0.7,0.7-1.3,1-2.2,1c-1.1,0-2-0.7-2-2.1c0-1.1,0.6-1.8,1.4-2.2
				c0.7-0.3,1.8-0.4,2.6-0.5v-0.2c0-0.3,0-0.7-0.2-1c-0.2-0.2-0.5-0.3-0.8-0.3c-0.5,0-1,0.3-1.1,0.8c0,0.1-0.1,0.2-0.2,0.2L48,68.3
				c-0.1,0-0.2-0.1-0.2-0.3c0.3-1.6,1.7-2,3-2c0.7,0,1.5,0.2,2,0.7c0.7,0.6,0.6,1.4,0.6,2.3V71c0,0.6,0.3,0.9,0.5,1.2
				c0.1,0.1,0.1,0.3,0,0.4C53.7,72.8,53.2,73.2,52.9,73.5L52.9,73.5z"/>
		</defs>
		<clipPath id="SVGID_40_">
			<use xlink:href="#SVGID_39_"  style="overflow:visible;"/>
		</clipPath>
		<rect x="45.2" y="63.7" class="st19" width="11.1" height="12.2"/>
	</g>
	<g>
		<defs>
			<path id="SVGID_41_" d="M33.7,70.2c0,0.5,0,0.9-0.3,1.4c-0.2,0.4-0.6,0.6-0.9,0.6c-0.5,0-0.8-0.4-0.8-1c0-1.1,1-1.3,2-1.3V70.2z
				 M35.1,73.5c-0.1,0.1-0.2,0.1-0.3,0c-0.5-0.4-0.5-0.5-0.8-0.9c-0.7,0.7-1.3,1-2.2,1c-1.1,0-2-0.7-2-2.1c0-1.1,0.6-1.8,1.4-2.2
				c0.7-0.3,1.8-0.4,2.6-0.5v-0.2c0-0.3,0-0.7-0.2-1c-0.2-0.2-0.5-0.3-0.8-0.3c-0.5,0-1,0.3-1.1,0.8c0,0.1-0.1,0.2-0.2,0.2l-1.3-0.1
				c-0.1,0-0.2-0.1-0.2-0.3c0.3-1.6,1.7-2,3-2c0.7,0,1.5,0.2,2,0.7c0.7,0.6,0.6,1.4,0.6,2.3V71c0,0.6,0.3,0.9,0.5,1.2
				c0.1,0.1,0.1,0.3,0,0.4C35.9,72.8,35.4,73.2,35.1,73.5L35.1,73.5z"/>
		</defs>
		<clipPath id="SVGID_42_">
			<use xlink:href="#SVGID_41_"  style="overflow:visible;"/>
		</clipPath>
		<rect x="27.4" y="63.7" class="st20" width="11.1" height="12.2"/>
	</g>
	<g>
		<defs>
			<path id="SVGID_43_" d="M31.8,49.5V34.7h4.9v14.6c0,3.5,2.9,4.5,4.7,4.5c3.7,0,4.9-2.2,4.9-3.4V34.7h4.9v23h-2.8l-1.9-2.6
				c-1.3,1.6-3.5,3.1-6.7,3.1C35.1,58.1,31.8,55,31.8,49.5"/>
		</defs>
		<clipPath id="SVGID_44_">
			<use xlink:href="#SVGID_43_"  style="overflow:visible;"/>
		</clipPath>
		<rect x="29.5" y="32.3" class="st21" width="23.9" height="28.1"/>
	</g>
	<g>
		<defs>
			<path id="SVGID_45_" d="M87,26.5v31.1h2.8l1.8-2.6c1.3,1.6,3.5,3.1,6.7,3.1c4.3,0,7.9-2.6,7.9-8.4v-7.2c0-5.8-3.6-8.4-8.1-8.4
				c-3.1,0-5.2,1.4-6.3,2.8V26.5H87z M96.8,53.7c-3,0-5.2-1.4-5.1-4.6h0v-6.3c0-2.5,2-4.3,5.1-4.3c2.2,0,4.5,1.6,4.5,4.4v6.4
				C101.4,52.1,99.1,53.7,96.8,53.7z"/>
		</defs>
		<clipPath id="SVGID_46_">
			<use xlink:href="#SVGID_45_"  style="overflow:visible;"/>
		</clipPath>
		<rect x="84.7" y="24.2" class="st22" width="23.8" height="36.3"/>
	</g>
	<g>
		<defs>
			<path id="SVGID_47_" d="M68.8,26.5v10.4c-1.1-1.4-3.2-2.8-6.3-2.8c-4.5,0-8.1,2.6-8.1,8.4v7.2c0,5.8,3.7,8.4,7.9,8.4
				c3.2,0,5.4-1.5,6.7-3.1l1.8,2.6h2.8V26.5H68.8z M59.2,49.4v-6.4c0-2.7,2.3-4.4,4.5-4.4c3.2,0,5.1,1.8,5.1,4.3v6.3h0
				c0.1,3.1-2.1,4.6-5.1,4.6C61.4,53.7,59.2,52.1,59.2,49.4z"/>
		</defs>
		<clipPath id="SVGID_48_">
			<use xlink:href="#SVGID_47_"  style="overflow:visible;"/>
		</clipPath>
		<rect x="52.1" y="24.2" class="st23" width="23.8" height="36.3"/>
	</g>
	<g>
		<defs>
			<rect id="SVGID_49_" x="109.4" y="26.5" width="4.9" height="31.1"/>
		</defs>
		<clipPath id="SVGID_50_">
			<use xlink:href="#SVGID_49_"  style="overflow:visible;"/>
		</clipPath>
		<rect x="107.1" y="24.2" class="st24" width="9.5" height="35.8"/>
	</g>
	<g>
		<defs>
			<rect id="SVGID_51_" x="77.9" y="34.7" width="4.9" height="23"/>
		</defs>
		<clipPath id="SVGID_52_">
			<use xlink:href="#SVGID_51_"  style="overflow:visible;"/>
		</clipPath>
		<rect x="75.6" y="32.3" class="st25" width="9.5" height="27.6"/>
	</g>
	<g>
		<defs>
			<path id="SVGID_53_" d="M80.3,31.9c1.5,0,2.8-1.2,2.8-2.8c0-1.5-1.2-2.8-2.8-2.8c-1.5,0-2.8,1.2-2.8,2.8
				C77.6,30.7,78.8,31.9,80.3,31.9"/>
		</defs>
		<clipPath id="SVGID_54_">
			<use xlink:href="#SVGID_53_"  style="overflow:visible;"/>
		</clipPath>
		<rect x="75.2" y="24" class="st26" width="10.2" height="10.2"/>
	</g>
	<g>
		<defs>
			<rect id="SVGID_55_" x="9.3" y="34.1" width="127.8" height="24"/>
		</defs>
		<clipPath id="SVGID_56_">
			<use xlink:href="#SVGID_55_"  style="overflow:visible;"/>
		</clipPath>
		<g class="st27">
			<g>
				<defs>
					<rect id="SVGID_57_" x="9.3" y="33.8" width="128" height="24.7"/>
				</defs>
				<clipPath id="SVGID_58_">
					<use xlink:href="#SVGID_57_"  style="overflow:visible;"/>
				</clipPath>
				<g class="st28">
					<defs>
						<path id="SVGID_59_" d="M127.6,53.7c-3.3,0-4.9-1.7-4.9-4.1v-1.9h14.4v-5.2c0-5.3-3.7-8.4-9.4-8.4c-6,0-9.8,3.3-9.8,8.5v7.1
							c0,5.3,3.8,8.4,9.8,8.4c4.5,0,7.7-1.8,9-4.9l-3.5-2.2C131.9,52.9,130.1,53.7,127.6,53.7z M122.7,42.6c0-2.4,1.6-4,4.8-4
							c3.1,0,4.8,1.6,4.8,4V44h-9.5V42.6z"/>
					</defs>
					<clipPath id="SVGID_60_">
						<use xlink:href="#SVGID_59_"  style="overflow:visible;"/>
					</clipPath>
					<g class="st29">
						<defs>
							<rect id="SVGID_61_" x="9.3" y="33.8" width="128" height="24.7"/>
						</defs>
						<clipPath id="SVGID_62_">
							<use xlink:href="#SVGID_61_"  style="overflow:visible;"/>
						</clipPath>
						<rect x="115.5" y="31.8" class="st30" width="23.9" height="28.7"/>
					</g>
				</g>
				<g class="st28">
					<defs>
						<path id="SVGID_63_" d="M19.3,34.1c-4.7,0-7.8,1.9-9,4.8l3.8,2.4c1.6-2.5,3.1-2.7,5.2-2.7c3,0,4.3,1.4,4.3,3.7V44l-4.1,0
							c-3,0-10.3,1-10.3,7.4c0,4.5,3.4,6.8,7.6,6.8c3.3,0,5.7-1.5,7-3.1l1.9,2.6h2.8V41.9C28.5,37.4,25.5,34.1,19.3,34.1z
							 M23.7,50.3c0,0.4,0,0.8-0.5,1.4c-0.7,1.1-2.6,2.1-4.8,2.1c-2.3,0-4-0.9-4-2.9c0-2.8,4.5-3.3,7.2-3.5h2.1V50.3z"/>
					</defs>
					<clipPath id="SVGID_64_">
						<use xlink:href="#SVGID_63_"  style="overflow:visible;"/>
					</clipPath>
					<g class="st31">
						<defs>
							<rect id="SVGID_65_" x="9.3" y="33.8" width="128" height="24.7"/>
						</defs>
						<clipPath id="SVGID_66_">
							<use xlink:href="#SVGID_65_"  style="overflow:visible;"/>
						</clipPath>
						<rect x="6.9" y="31.8" class="st32" width="23.9" height="28.7"/>
					</g>
				</g>
			</g>
		</g>
	</g>
</g>
</svg>
